G04 #@! TF.FileFunction,Copper,L1,Top,Signal*
%FSLAX46Y46*%
G04 Gerber Fmt 4.6, Leading zero omitted, Abs format (unit mm)*
G04 Created by KiCad (PCBNEW 0.201501310101+5397~21~ubuntu14.10.1-product) date Sunday 01 February 2015 07:02:42 PM IST*
%MOMM*%
G01*
G04 APERTURE LIST*
%ADD10C,0.100000*%
%ADD11R,1.800000X0.600000*%
%ADD12R,2.000000X1.600000*%
%ADD13C,6.500000*%
%ADD14R,1.350000X0.400000*%
%ADD15R,1.400000X1.600000*%
%ADD16R,1.900000X1.900000*%
%ADD17C,1.800000*%
%ADD18C,1.397000*%
%ADD19R,1.700000X1.700000*%
%ADD20C,1.700000*%
%ADD21C,1.600000*%
%ADD22C,3.000000*%
%ADD23C,0.500000*%
%ADD24C,0.254000*%
G04 APERTURE END LIST*
D10*
X29500000Y-44500000D02*
X29500000Y-24500000D01*
X64500000Y-44500000D02*
X29500000Y-44500000D01*
X64500000Y-24500000D02*
X64500000Y-44500000D01*
X29500000Y-24500000D02*
X64500000Y-24500000D01*
D11*
X37200000Y-28400000D03*
X37200000Y-29200000D03*
X37200000Y-30000000D03*
X37200000Y-30800000D03*
X37200000Y-31600000D03*
D12*
X37000000Y-25650000D03*
X31500000Y-25650000D03*
X37000000Y-34350000D03*
X31500000Y-34350000D03*
D13*
X47000000Y-28000000D03*
D14*
X33750000Y-40000000D03*
X33750000Y-40650000D03*
X33750000Y-41300000D03*
X33750000Y-39350000D03*
X33750000Y-38700000D03*
D15*
X33525000Y-36800000D03*
X33525000Y-43200000D03*
D16*
X31075000Y-38800000D03*
X31075000Y-41200000D03*
D17*
X31075000Y-36700000D03*
X31075000Y-43300000D03*
D18*
X41000000Y-29770000D03*
X41000000Y-27230000D03*
D19*
X54250000Y-28150000D03*
X54250000Y-30690000D03*
D20*
X54250000Y-33230000D03*
X54250000Y-35770000D03*
X54250000Y-38310000D03*
X54250000Y-40850000D03*
D21*
X43750000Y-34290000D03*
X46250000Y-34290000D03*
X46250000Y-36290000D03*
X43750000Y-36290000D03*
D22*
X38980000Y-39000000D03*
X51020000Y-39000000D03*
D23*
X50730000Y-33230000D02*
X50000000Y-32500000D01*
X50000000Y-32500000D02*
X45540000Y-32500000D01*
X45540000Y-32500000D02*
X43750000Y-34290000D01*
X54250000Y-33230000D02*
X50730000Y-33230000D01*
X39630000Y-28400000D02*
X41000000Y-29770000D01*
D24*
X37200000Y-28400000D02*
X38250000Y-28400000D01*
D23*
X38250000Y-28400000D02*
X39630000Y-28400000D01*
X38250000Y-36500000D02*
X36050000Y-38700000D01*
X40250000Y-36500000D02*
X38250000Y-36500000D01*
D24*
X34750000Y-38700000D02*
X33750000Y-38700000D01*
D23*
X34750000Y-38700000D02*
X36050000Y-38700000D01*
X41000000Y-35750000D02*
X40250000Y-36500000D01*
X41000000Y-34290000D02*
X41000000Y-35750000D01*
X41000000Y-29770000D02*
X41000000Y-34290000D01*
X43750000Y-34290000D02*
X41000000Y-34290000D01*
X31175000Y-36800000D02*
X31075000Y-36700000D01*
X33525000Y-36800000D02*
X31175000Y-36800000D01*
X31175000Y-43200000D02*
X31075000Y-43300000D01*
X33525000Y-43200000D02*
X31175000Y-43200000D01*
X31075000Y-43300000D02*
X31075000Y-41200000D01*
X31075000Y-41200000D02*
X31075000Y-38800000D01*
X31075000Y-38800000D02*
X31075000Y-36700000D01*
X37000000Y-25650000D02*
X31500000Y-25650000D01*
X31500000Y-25650000D02*
X31500000Y-34350000D01*
X31500000Y-34350000D02*
X37000000Y-34350000D01*
X36450000Y-36800000D02*
X37000000Y-36250000D01*
X37000000Y-36250000D02*
X37000000Y-34350000D01*
X33525000Y-36800000D02*
X36450000Y-36800000D01*
X33750000Y-41750000D02*
X33525000Y-41975000D01*
X33525000Y-41975000D02*
X33525000Y-43200000D01*
D24*
X33750000Y-41300000D02*
X33750000Y-41750000D01*
D23*
X40400000Y-25650000D02*
X41000000Y-26250000D01*
X41000000Y-26250000D02*
X41000000Y-27230000D01*
X37000000Y-25650000D02*
X40400000Y-25650000D01*
X34780000Y-43200000D02*
X38980000Y-39000000D01*
X33525000Y-43200000D02*
X34780000Y-43200000D01*
X37000000Y-32750000D02*
X37200000Y-32550000D01*
X37000000Y-32750000D02*
X37000000Y-34350000D01*
X37200000Y-31950000D02*
X37200000Y-32550000D01*
D24*
X37200000Y-31600000D02*
X37200000Y-31950000D01*
D23*
X54250000Y-30690000D02*
X54250000Y-28150000D01*
X56400000Y-28150000D02*
X57250000Y-29000000D01*
X57250000Y-29000000D02*
X57250000Y-42250000D01*
X57250000Y-42250000D02*
X56500000Y-43000000D01*
X56500000Y-43000000D02*
X51750000Y-43000000D01*
X51750000Y-43000000D02*
X51020000Y-42270000D01*
X51020000Y-42270000D02*
X51020000Y-39000000D01*
X54250000Y-28150000D02*
X56400000Y-28150000D01*
X43750000Y-39000000D02*
X38980000Y-39000000D01*
X51020000Y-39000000D02*
X43750000Y-39000000D01*
X43750000Y-36290000D02*
X43750000Y-39000000D01*
M02*
