G04 #@! TF.FileFunction,Soldermask,Top*
%FSLAX46Y46*%
G04 Gerber Fmt 4.6, Leading zero omitted, Abs format (unit mm)*
G04 Created by KiCad (PCBNEW 0.201501310101+5397~21~ubuntu14.10.1-product) date Sunday 01 February 2015 07:02:43 PM IST*
%MOMM*%
G01*
G04 APERTURE LIST*
%ADD10C,0.100000*%
%ADD11R,1.800000X0.600000*%
%ADD12R,2.000000X1.600000*%
%ADD13C,1.100000*%
%ADD14C,6.500000*%
%ADD15R,1.350000X0.400000*%
%ADD16R,1.400000X1.600000*%
%ADD17R,1.900000X1.900000*%
%ADD18C,1.800000*%
%ADD19C,1.397000*%
%ADD20R,1.700000X1.700000*%
%ADD21C,1.700000*%
%ADD22C,1.600000*%
%ADD23C,3.000000*%
G04 APERTURE END LIST*
D10*
X29500000Y-44500000D02*
X29500000Y-24500000D01*
X64500000Y-44500000D02*
X29500000Y-44500000D01*
X64500000Y-24500000D02*
X64500000Y-44500000D01*
X29500000Y-24500000D02*
X64500000Y-24500000D01*
D11*
X37200000Y-28400000D03*
X37200000Y-29200000D03*
X37200000Y-30000000D03*
X37200000Y-30800000D03*
X37200000Y-31600000D03*
D12*
X37000000Y-25650000D03*
X31500000Y-25650000D03*
X37000000Y-34350000D03*
X31500000Y-34350000D03*
D13*
X34500000Y-27800000D03*
X34500000Y-32200000D03*
D14*
X47000000Y-28000000D03*
D15*
X33750000Y-40000000D03*
X33750000Y-40650000D03*
X33750000Y-41300000D03*
X33750000Y-39350000D03*
X33750000Y-38700000D03*
D16*
X33525000Y-36800000D03*
X33525000Y-43200000D03*
D17*
X31075000Y-38800000D03*
X31075000Y-41200000D03*
D18*
X31075000Y-36700000D03*
X31075000Y-43300000D03*
D19*
X41000000Y-29770000D03*
X41000000Y-27230000D03*
D20*
X54250000Y-28150000D03*
X54250000Y-30690000D03*
D21*
X54250000Y-33230000D03*
X54250000Y-35770000D03*
X54250000Y-38310000D03*
X54250000Y-40850000D03*
D22*
X43750000Y-34290000D03*
X46250000Y-34290000D03*
X46250000Y-36290000D03*
X43750000Y-36290000D03*
D23*
X38980000Y-39000000D03*
X51020000Y-39000000D03*
M02*
